<svg width="327" height="247" viewBox="0 0 327 247" fill="none" xmlns="http://www.w3.org/2000/svg">
<g clip-path="url(#clip0_693_148)">
<path opacity="0.1" d="M21.4021 96.8111H49.8225V136.409H23.4801C23.4129 136.818 23.3457 137.224 23.2701 137.634H49.8225V169.563C49.7777 169.563 49.7329 169.528 49.6909 169.511C48.944 169.208 48.1972 168.886 47.4504 168.546C47.2908 168.472 47.1339 168.395 46.9715 168.323C46.2247 167.962 45.4778 167.581 44.731 167.178C44.4706 167.038 44.2101 166.892 43.9553 166.743C39.8092 164.378 36.0409 161.38 32.7809 157.852C32.6829 157.757 32.5933 157.654 32.5008 157.566C32.0471 157.062 31.6018 156.552 31.1706 156.031C31.0081 155.84 30.8513 155.645 30.6917 155.459C30.1819 154.823 29.689 154.165 29.2129 153.504C29.1401 153.404 29.0729 153.306 29.0029 153.217C27.0526 150.459 25.4352 147.47 24.1859 144.315C24.1467 144.221 24.1103 144.117 24.0739 144.029C23.6874 143.027 23.3373 142.011 23.0348 140.974C22.906 140.542 22.78 140.116 22.6736 139.666C22.6344 139.537 22.6035 139.406 22.5699 139.277C20.996 132.936 20.814 126.347 20.814 119.789C20.814 119.025 20.814 118.262 20.814 117.499C20.8364 114.821 20.8672 112.147 20.9064 109.475C20.9213 108.788 20.9353 108.098 20.9484 107.405C20.9876 105.652 21.0436 103.894 21.1164 102.133C21.1332 101.646 21.1556 101.156 21.1808 100.673C21.192 100.392 21.206 100.112 21.2229 99.8311C21.2733 98.8177 21.333 97.8111 21.4021 96.8111Z" fill="#C2B280"/>
<path opacity="0.1" d="M49.8226 52.7223H34.2317C36.7672 48.6703 39.5363 44.7761 42.5242 41.0603C44.8431 38.1519 47.2853 35.318 49.8226 32.5872V52.7223Z" fill="#C51104"/>
<path opacity="0.1" d="M49.8225 53.9417V95.5859H21.4917C21.4917 95.4657 21.5085 95.3426 21.5197 95.2224C21.5449 94.8932 21.5701 94.5669 21.5981 94.2377C21.6261 93.8541 21.6625 93.4705 21.6989 93.0927C21.7354 92.7148 21.7718 92.2568 21.8166 91.8417C21.8614 91.4267 21.8978 91.0059 21.9426 90.5908C21.9874 90.1757 22.0322 89.7607 22.0826 89.3485C22.133 88.9363 22.1778 88.5183 22.2339 88.1061C22.2759 87.7655 22.3179 87.422 22.3655 87.0785C22.4299 86.5947 22.4971 86.1109 22.5671 85.63C22.5671 85.5556 22.5895 85.484 22.6007 85.4125C23.1126 81.8924 23.8081 78.4027 24.6844 74.9585C25.6046 71.346 26.7792 67.8063 28.1991 64.3671C29.7079 60.7635 31.4752 57.2789 33.4866 53.9417H49.8225Z" fill="#C51104"/>
<path opacity="0.1" d="M56.6113 96.8111V136.409H117.317V96.8111H56.6113ZM56.6113 137.634V171.641C56.9586 171.712 57.3003 171.784 57.6447 171.844C58.1068 171.936 58.5717 172.019 59.045 172.09L59.3251 172.13C59.5099 172.162 59.6976 172.187 59.8852 172.21C60.3529 172.279 60.8206 172.331 61.2855 172.376C61.504 172.399 61.7308 172.416 61.9521 172.437L62.4926 172.477C62.7866 172.5 63.0779 172.517 63.3692 172.528C63.5484 172.528 63.7276 172.542 63.9097 172.548C64.0917 172.554 64.1897 172.548 64.3354 172.548H64.8647C65.1055 172.548 65.3464 172.548 65.5844 172.548H65.8925C66.1333 172.548 66.3742 172.548 66.6122 172.525H66.6263C66.7943 172.525 66.9595 172.525 67.1276 172.505C67.1751 172.508 67.2228 172.508 67.2704 172.505C67.4104 172.505 67.5504 172.505 67.6849 172.488C67.7166 172.485 67.7484 172.485 67.7801 172.488C68.091 172.468 68.4046 172.442 68.7211 172.414C69.0376 172.385 69.3372 172.351 69.6537 172.316L70.2894 172.236C72.8872 171.864 75.4562 171.306 77.9771 170.564C83.6427 168.95 89.1794 166.691 94.8422 165.04C102.157 162.907 110.245 161.857 117.314 164.453V137.634H56.6113ZM117.317 52.7223V0.00574081C110.671 -0.068992 104.044 0.724635 97.5952 2.36734C82.2228 6.31478 68.4186 14.8766 56.6113 25.8115V52.7194H59.6668V53.9417H56.6113V95.5859H117.317V53.9417H72.1658V52.7165L117.317 52.7223ZM195.308 34.9144C191.505 34.777 187.724 33.549 184.302 31.6454C177.765 28.0128 172.539 22.3965 166.703 17.6619C154.576 7.79471 139.537 1.83777 124.108 0.360696V52.7223H210.762L210.977 52.4904L195.308 34.9144ZM203.203 33.4831L211.574 42.8751V31.0128C208.756 31.3763 206.303 32.2208 203.203 33.4717V33.4831ZM211.574 180.085V137.634H193.723C193.678 137.453 193.628 137.27 193.572 137.087C193.625 137.27 193.672 137.453 193.72 137.634H124.108V168.332C124.769 168.833 125.422 169.362 126.069 169.895C126.767 170.479 127.461 171.069 128.15 171.667L128.844 172.253C129.178 172.54 129.516 172.826 129.852 173.098C130.526 173.653 131.205 174.203 131.888 174.747C132.23 175.021 132.574 175.291 132.919 175.557C138.389 179.83 144.159 183.686 150.182 187.096C151.532 187.866 152.896 188.607 154.268 189.331C155.181 189.812 156.101 190.284 157.027 190.745C158.416 191.438 159.816 192.106 161.228 192.749C174.241 198.72 188.001 202.816 202.116 204.921C205.249 205.392 208.396 205.764 211.557 206.037V180.08H211.837L211.574 180.085ZM124.108 53.9417V95.5859H211.574V53.9417H124.108ZM124.108 96.8054V136.409H211.574V96.8111L124.108 96.8054ZM218.362 30.9555V44.2091L229.044 32.2236C225.504 31.6263 221.943 31.2036 218.362 30.9555ZM218.362 96.8111V136.409H303.43V96.8111H218.362ZM303.131 183.225L303.43 137.634H218.362V206.498C223.842 206.731 229.33 206.663 234.802 206.295H234.897C237.511 206.123 240.113 205.879 242.702 205.562H242.761C256.581 203.918 270.093 200.228 282.874 194.61L303.131 183.225ZM319.842 103.315C319.519 102.551 319.188 101.788 318.848 101.025C318.215 99.5935 317.548 98.2023 316.859 96.814H310.222V136.409H327C326.986 125.193 324.208 113.743 319.842 103.315ZM310.222 137.634V176.851C314.946 172.222 318.943 166.923 321.816 160.866C325.275 153.57 326.857 145.675 326.989 137.631L310.222 137.634ZM310.222 85.2722V95.5774H316.238C314.414 92.0349 312.406 88.5949 310.222 85.2722ZM252.53 38.7273C252.087 38.5527 251.642 38.3781 251.197 38.2121C246.501 36.4385 241.703 34.9643 236.83 33.798L220.48 52.1355L220.16 52.4875L220.37 52.7194H278.561C270.456 47.019 261.718 42.3221 252.53 38.7273ZM280.27 53.9417H219.555L218.362 55.0552V95.5859H228.823H303.43V75.9489C296.684 67.6102 288.898 60.2114 280.27 53.9417Z" fill="#C51104"/>
<path opacity="0.1" d="M49.8225 74.9499V95.5859H21.4917C21.4917 95.4657 21.5085 95.3426 21.5197 95.2224C21.5449 94.8932 21.5701 94.5669 21.5981 94.2377C21.6261 93.8541 21.6625 93.4705 21.6989 93.0927C21.7354 92.7148 21.7718 92.2568 21.8166 91.8417C21.8614 91.4267 21.8978 91.0059 21.9426 90.5908C21.9874 90.1757 22.0322 89.7607 22.0826 89.3485C22.133 88.9363 22.1778 88.5183 22.2339 88.1061C22.2759 87.7655 22.3179 87.422 22.3655 87.0785C22.4299 86.5947 22.4971 86.1109 22.5671 85.63C22.5671 85.5556 22.5895 85.484 22.6007 85.4125C23.1126 81.8924 23.8081 78.4027 24.6844 74.9585L49.8225 74.9499Z" fill="#C51104" fill-opacity="0.3"/>
<path opacity="0.1" d="M21.4021 96.8111H49.8225V136.409H23.4801C23.4129 136.818 23.3457 137.224 23.2701 137.634H49.8225V169.563C49.7777 169.563 49.7329 169.528 49.6909 169.511C48.944 169.208 48.1972 168.886 47.4504 168.546C47.2908 168.472 47.1339 168.395 46.9715 168.323C46.2247 167.962 45.4778 167.581 44.731 167.178C44.4706 167.038 44.2101 166.892 43.9553 166.743C39.8092 164.378 36.0409 161.38 32.7809 157.852C32.6829 157.757 32.5933 157.654 32.5008 157.566C32.0471 157.062 31.6018 156.552 31.1706 156.031C31.0081 155.84 30.8513 155.645 30.6917 155.459C30.1819 154.823 29.689 154.165 29.2129 153.504C29.1401 153.404 29.0729 153.306 29.0029 153.217C27.0526 150.459 25.4352 147.47 24.1859 144.315C24.1467 144.221 24.1103 144.117 24.0739 144.029C23.6874 143.027 23.3373 142.011 23.0348 140.974C22.906 140.542 22.78 140.116 22.6736 139.666C22.6344 139.537 22.6035 139.406 22.5699 139.277C20.996 132.936 20.814 126.347 20.814 119.789C20.814 119.025 20.814 118.262 20.814 117.499C20.8364 114.821 20.8672 112.147 20.9064 109.475C20.9213 108.788 20.9353 108.098 20.9484 107.405C20.9876 105.652 21.0436 103.894 21.1164 102.133C21.1332 101.646 21.1556 101.156 21.1808 100.673C21.192 100.392 21.206 100.112 21.2229 99.8311C21.2733 98.8177 21.333 97.8111 21.4021 96.8111Z" fill="#C51104"/>
<path opacity="0.1" d="M77.9797 59.9072V95.5859H56.6084V59.9072H59.6554V47.8273H72.1629V59.9072H77.9797Z" fill="#C2B280"/>
<path opacity="0.1" d="M77.9769 96.8082H56.6084V136.406H77.9769V96.8082Z" fill="#C2B280"/>
<path opacity="0.1" d="M56.6113 137.634H77.9798V170.553C75.4592 171.295 72.8902 171.852 70.2922 172.222C70.0794 172.253 69.8693 172.279 69.6565 172.302C69.3428 172.339 69.0319 172.374 68.7211 172.402L67.7829 172.479H67.6877L67.2732 172.502H67.1303C66.9623 172.502 66.7971 172.522 66.629 172.525H66.615C66.3742 172.525 66.1361 172.542 65.8953 172.548H65.5872C65.3492 172.548 65.1111 172.548 64.8675 172.548H64.341H63.9125C63.7304 172.548 63.5512 172.548 63.3692 172.525C63.0816 172.514 62.7904 172.497 62.4954 172.474L61.9549 172.434C61.7308 172.417 61.5068 172.394 61.2855 172.371C60.815 172.329 60.3483 172.274 59.8852 172.208L59.3251 172.127L59.045 172.087C58.5773 172.016 58.1124 171.936 57.6447 171.844C57.2975 171.781 56.9558 171.709 56.6113 171.635V137.634Z" fill="#C2B280"/>
<path opacity="0.1" d="M211.571 55.6936H193.949V95.5831H211.571V55.6936Z" fill="#C2B280"/>
<path opacity="0.1" d="M211.574 96.8082V136.409H124.108V119.328H170.696V129.404H193.95V96.8082H211.574Z" fill="#C2B280"/>
<path opacity="0.1" d="M211.851 180.094C211.759 180.094 211.666 180.094 211.571 180.077V206.054C208.414 205.789 205.268 205.418 202.133 204.941C188.013 202.837 174.247 198.743 161.227 192.775C157.469 191.042 153.787 189.154 150.182 187.11C144.161 183.699 138.392 179.842 132.922 175.571C131.544 174.495 130.187 173.395 128.85 172.271C127.923 171.486 127.004 170.685 126.069 169.909C125.425 169.374 124.772 168.844 124.108 168.34V137.634H193.72C193.669 137.451 193.625 137.27 193.574 137.087C193.628 137.27 193.678 137.451 193.723 137.634H211.574V180.074C211.666 180.077 211.759 180.085 211.851 180.094Z" fill="#0C4A6B"/>
<path opacity="0.1" d="M257.531 52.7223H246.049V49.0754H251.194V38.2121C251.64 38.38 252.084 38.5517 252.527 38.7273V49.0754H257.528L257.531 52.7223Z" fill="#0C4A6B"/>
<path opacity="0.1" d="M285.198 95.5859H228.823C228.828 95.5873 228.834 95.5873 228.839 95.5859H228.814H218.362V55.6964H221.325V85.1806H234.863V67.7191H246.052V53.9417H257.534V67.7277H268.717V85.1892H285.201L285.198 95.5859Z" fill="#0C4A6B"/>
<path opacity="0.1" d="M218.362 96.8111V136.409H285.201V96.8111H218.362ZM303.335 183.016L303.43 151.672H285.201V137.645H218.362V206.498C223.842 206.731 229.329 206.663 234.802 206.295H234.897C237.511 206.123 240.113 205.879 242.702 205.562H242.761C256.581 203.918 270.093 200.228 282.874 194.61" fill="#0C4A6B"/>
<path opacity="0.1" d="M311.398 137.634H326.989C326.854 145.675 325.275 153.572 321.816 160.866C318.943 166.926 314.946 172.225 310.222 176.853V151.663H311.398V137.634Z" fill="#0C4A6B"/>
<path opacity="0.1" d="M327 136.409H311.398V103.315H319.842C324.208 113.743 326.986 125.193 327 136.409Z" fill="#0C4A6B"/>
<path opacity="0.1" d="M211.574 66.7831H202.133V79.2895H211.574V66.7831Z" fill="#0C4A6B"/>
<path opacity="0.1" d="M211.574 92.7062H202.133V95.5859H211.574V92.7062Z" fill="#0C4A6B"/>
<path opacity="0.1" d="M211.574 96.8082H202.133V105.21H211.574V96.8082Z" fill="#0C4A6B"/>
<path opacity="0.1" d="M211.574 118.629H202.133V131.136H211.574V118.629Z" fill="#0C4A6B"/>
<path opacity="0.1" d="M211.574 144.553H202.133V157.059H211.574V144.553Z" fill="#0C4A6B"/>
<path opacity="0.1" d="M211.574 180.074C211.666 180.074 211.758 180.074 211.854 180.094C211.761 180.094 211.669 180.094 211.574 180.077V182.982H202.133V170.476H211.574V180.074Z" fill="#0C4A6B"/>
<path opacity="0.1" d="M211.574 196.396V206.054C208.415 205.789 205.268 205.418 202.133 204.941V196.396H211.574Z" fill="#0C4A6B"/>
<path opacity="0.1" d="M164.569 135.49H124.108V136.409H164.569V135.49Z" fill="#0C4A6B"/>
<path opacity="0.1" d="M164.569 137.631H124.108V141.152H164.569V137.631Z" fill="#0C4A6B"/>
<path opacity="0.1" d="M164.569 152.694H124.108V158.356H164.569V152.694Z" fill="#0C4A6B"/>
<path opacity="0.1" d="M164.569 169.897V175.56H132.922C131.544 174.487 130.187 173.386 128.85 172.256C127.92 171.475 127.001 170.673 126.069 169.897H164.569Z" fill="#0C4A6B"/>
<path opacity="0.1" d="M164.568 187.098V192.775H161.227C157.469 191.042 153.787 189.154 150.182 187.11L164.568 187.098Z" fill="#0C4A6B"/>
<path opacity="0.1" d="M242.767 100.647H234.802V108.788H242.767V100.647Z" fill="#0C4A6B"/>
<path opacity="0.1" d="M70.3116 62.7154H62.3467V70.8565H70.3116V62.7154Z" fill="#0C4A6B"/>
<path opacity="0.1" d="M70.3116 81.6253H62.3467V89.7664H70.3116V81.6253Z" fill="#0C4A6B"/>
<path opacity="0.1" d="M70.3116 100.535H62.3467V108.676H70.3116V100.535Z" fill="#0C4A6B"/>
<path opacity="0.1" d="M70.3116 119.442H62.3467V127.583H70.3116V119.442Z" fill="#0C4A6B"/>
<path opacity="0.1" d="M70.3116 138.352H62.3467V146.493H70.3116V138.352Z" fill="#0C4A6B"/>
<path opacity="0.1" d="M70.3116 157.262H62.3467V165.403H70.3116V157.262Z" fill="#0C4A6B"/>
<path opacity="0.1" d="M273.173 100.647H265.208V108.788H273.173V100.647Z" fill="#0C4A6B"/>
<path opacity="0.1" d="M242.767 120.728H234.802V128.869H242.767V120.728Z" fill="#0C4A6B"/>
<path opacity="0.1" d="M273.173 120.728H265.208V128.869H273.173V120.728Z" fill="#0C4A6B"/>
<path opacity="0.1" d="M242.767 140.805H234.802V148.947H242.767V140.805Z" fill="#0C4A6B"/>
<path opacity="0.1" d="M273.173 140.805H265.208V148.947H273.173V140.805Z" fill="#0C4A6B"/>
<path opacity="0.1" d="M242.767 160.886H234.802V169.027H242.767V160.886Z" fill="#0C4A6B"/>
<path opacity="0.1" d="M273.173 160.886H265.208V169.027H273.173V160.886Z" fill="#0C4A6B"/>
<path opacity="0.1" d="M242.767 180.967H234.802V189.108H242.767V180.967Z" fill="#0C4A6B"/>
<path opacity="0.1" d="M273.173 180.967H265.208V189.108H273.173V180.967Z" fill="#0C4A6B"/>
<path opacity="0.1" d="M234.802 206.295V201.045H242.764V205.548L234.802 206.295Z" fill="#0C4A6B"/>
<path opacity="0.1" d="M22.5671 85.4039V90.0612H49.8225V85.4039H22.5671ZM25.2809 89.7692H23.0404V85.6987H25.2809V89.7692ZM27.9947 89.7692H25.7542V85.6987H27.9947V89.7692ZM30.7029 89.7692H28.4624V85.6987H30.7029V89.7692ZM33.4166 89.7692H31.1762V85.6987H33.4166V89.7692ZM36.1276 89.7692H33.8871V85.6987H36.1276V89.7692ZM38.8414 89.7692H36.6009V85.6987H38.8414V89.7692ZM41.5552 89.7692H39.3147V85.6987H41.5552V89.7692ZM44.2661 89.7692H42.0257V85.6987H44.2661V89.7692ZM46.9771 89.7692H44.7366V85.6987H46.9771V89.7692ZM49.6909 89.7692H47.4504V85.6987H49.6909V89.7692Z" fill="#0C4A6B"/>
<path opacity="0.1" d="M22.5671 98.9609V103.618H49.8225V98.9609H22.5671ZM25.2809 103.326H23.0404V99.2557H25.2809V103.326ZM27.9947 103.326H25.7542V99.2557H27.9947V103.326ZM30.7029 103.326H28.4624V99.2557H30.7029V103.326ZM33.4166 103.326H31.1762V99.2557H33.4166V103.326ZM36.1276 103.326H33.8871V99.2557H36.1276V103.326ZM38.8414 103.326H36.6009V99.2557H38.8414V103.326ZM41.5552 103.326H39.3147V99.2557H41.5552V103.326ZM44.2661 103.326H42.0257V99.2557H44.2661V103.326ZM46.9771 103.326H44.7366V99.2557H46.9771V103.326ZM49.6909 103.326H47.4504V99.2557H49.6909V103.326Z" fill="#0C4A6B"/>
<path opacity="0.1" d="M22.5671 112.521V117.175H49.8225V112.521H22.5671ZM25.2809 116.88H23.0404V112.81H25.2809V116.88ZM27.9947 116.88H25.7542V112.81H27.9947V116.88ZM30.7029 116.88H28.4624V112.81H30.7029V116.88ZM33.4166 116.88H31.1762V112.81H33.4166V116.88ZM36.1276 116.88H33.8871V112.81H36.1276V116.88ZM38.8414 116.88H36.6009V112.81H38.8414V116.88ZM41.5552 116.88H39.3147V112.81H41.5552V116.88ZM44.2661 116.88H42.0257V112.81H44.2661V116.88ZM46.9771 116.88H44.7366V112.81H46.9771V116.88ZM49.6909 116.88H47.4504V112.81H49.6909V116.88Z" fill="#0C4A6B"/>
<path opacity="0.1" d="M22.5671 126.078V130.732H49.8225V126.078H22.5671ZM25.2809 130.44H23.0404V126.364H25.2809V130.44ZM27.9947 130.44H25.7542V126.364H27.9947V130.44ZM30.7029 130.44H28.4624V126.364H30.7029V130.44ZM33.4166 130.44H31.1762V126.364H33.4166V130.44ZM36.1276 130.44H33.8871V126.364H36.1276V130.44ZM38.8414 130.44H36.6009V126.364H38.8414V130.44ZM41.5552 130.44H39.3147V126.364H41.5552V130.44ZM44.2661 130.44H42.0257V126.364H44.2661V130.44ZM46.9771 130.44H44.7366V126.364H46.9771V130.44ZM49.6909 130.44H47.4504V126.364H49.6909V130.44Z" fill="#0C4A6B"/>
<path opacity="0.1" d="M22.6987 139.629C22.8052 140.07 22.9312 140.505 23.06 140.937V139.924H25.3005V143.992H24.099C24.1326 144.089 24.169 144.189 24.2082 144.278H49.8337V139.629H22.6987ZM28.0199 143.992H25.7794V139.924H28.0199V143.992ZM30.728 143.992H28.4876V139.924H30.728V143.992ZM33.4418 143.992H31.2013V139.924H33.4418V143.992ZM36.1528 143.992H33.9123V139.924H36.1528V143.992ZM38.8666 143.992H36.6261V139.924H38.8666V143.992ZM41.5803 143.992H39.3399V139.924H41.5803V143.992ZM44.2913 143.992H42.0508V139.924H44.2913V143.992ZM47.0023 143.992H44.7618V139.924H47.0023V143.992ZM49.716 143.992H47.4756V139.924H49.716V143.992Z" fill="#0C4A6B"/>
<path opacity="0.1" d="M29.0112 153.186C29.084 153.278 29.1513 153.381 29.2213 153.472H30.7028V155.427L31.1817 156V153.461H33.4222V157.566H32.5008C32.5904 157.66 32.6772 157.76 32.7808 157.852H49.8168V153.186H29.0112ZM36.1415 157.566H33.9011V153.478H36.1415V157.566ZM38.8553 157.566H36.6148V153.478H38.8553V157.566ZM41.5691 157.566H39.3286V153.478H41.5691V157.566ZM44.2801 157.566H42.0396V153.478H44.2801V157.566ZM46.991 157.566H44.7506V153.478H46.991V157.566ZM49.7048 157.566H47.4643V153.478H49.7048V157.566Z" fill="#0C4A6B"/>
<path opacity="0.1" d="M43.9636 166.743C44.2213 166.892 44.4817 167.029 44.7422 167.175V167.032H46.9827V168.323C47.1451 168.395 47.2991 168.472 47.4588 168.546V167.032H49.6992V169.511C49.7418 169.531 49.7858 169.547 49.8309 169.56V166.743H43.9636Z" fill="#0C4A6B"/>
<path opacity="0.1" d="M211.571 180.074H211.851H211.571ZM193.571 137.087C193.625 137.27 193.672 137.453 193.72 137.634C193.678 137.453 193.628 137.27 193.571 137.087ZM59.6667 52.7223V53.9417H72.177V52.7166L59.6667 52.7223ZM211.574 180.074H211.854H211.574ZM193.571 137.087C193.625 137.27 193.672 137.453 193.72 137.634C193.678 137.453 193.628 137.27 193.571 137.087ZM211.571 180.074H211.851H211.571ZM193.571 137.087C193.625 137.27 193.672 137.453 193.72 137.634C193.678 137.453 193.628 137.27 193.571 137.087Z" fill="#0C4A6B"/>
<path opacity="0.1" d="M246.292 247C261.364 247 273.581 244.994 273.581 242.52C273.581 240.046 261.364 238.04 246.292 238.04C231.221 238.04 219.003 240.046 219.003 242.52C219.003 244.994 231.221 247 246.292 247Z" fill="#0C4A6B"/>
<path opacity="0.1" d="M123.218 242.52C138.289 242.52 150.507 240.514 150.507 238.04C150.507 235.566 138.289 233.56 123.218 233.56C108.146 233.56 95.9287 235.566 95.9287 238.04C95.9287 240.514 108.146 242.52 123.218 242.52Z" fill="#0C4A6B"/>
<path d="M154.635 119.583C154.628 119.554 154.613 119.528 154.593 119.508C154.175 119.087 148.854 111.396 148.854 111.396C148.854 111.396 148.574 110.537 148.121 109.421C148.266 109.228 148.375 109.01 148.443 108.777C148.467 108.678 148.485 108.577 148.496 108.476C148.496 108.444 148.518 108.419 148.527 108.387C148.624 107.999 148.614 107.591 148.499 107.208C148.467 107.306 148.429 107.402 148.384 107.494C148.278 107.161 148.138 106.84 147.964 106.538C147.258 105.296 146.25 104.248 145.508 103.037C144.384 101.156 143.937 98.9328 144.244 96.751C144.244 96.8626 144.244 96.9771 144.244 97.0888C144.273 96.6561 144.329 96.2257 144.413 95.8006C144.53 95.3168 144.686 94.8437 144.88 94.3865C145.547 92.8265 146.625 91.4667 147.28 89.9009C147.5 89.3728 147.667 88.8232 147.779 88.2607C148.01 87.3212 148.094 86.3502 148.028 85.3838C148.028 85.6128 147.992 85.8419 147.958 86.068C147.887 83.7445 146.969 81.532 145.384 79.8649C143.096 77.5147 139.811 76.6016 136.669 76.1207C135.348 75.9632 134.087 75.4712 133 74.6894C131.793 73.8908 130.233 73.699 128.822 73.8736C127.199 74.0529 125.692 74.8146 124.568 76.0233C123.075 77.7008 122.428 80.0767 120.686 81.4908C119.63 82.3496 118.291 82.7503 117.062 83.3343C115.832 83.9182 114.67 84.7655 114.275 86.0193C114.275 86.0193 114.275 86.0022 114.275 85.9936V86.0651L114.259 86.1109C113.85 87.5937 114.639 89.1023 115.051 90.5822C115.48 92.1137 115.508 93.731 115.53 95.314C115.561 97.2491 115.589 99.187 115.558 101.125C115.544 101.886 115.519 102.656 115.463 103.415C114.8 103.62 114.156 103.884 113.539 104.205C112.911 104.623 110.565 107.214 110.565 107.214L105.974 125.139L106.036 125.21L105.974 125.454L106.207 125.399C106.857 126.115 108.797 128.153 110.892 129.424L111.088 132.939C111.088 132.939 111.323 136.466 114.497 137.923C114.569 139.145 114.796 144.109 113.746 146.075C113.019 147.512 112.677 149.12 112.755 150.736C112.755 150.736 113.121 153.718 112.704 155.287C112.46 156.335 112.442 157.425 112.651 158.482C112.651 158.482 112.651 158.828 112.651 159.423C112.651 162.598 112.687 172.771 112.651 173.922C112.598 175.282 112.651 195.391 112.651 195.391C112.651 195.391 112.391 205.442 111.556 208.164C110.721 210.886 110.931 219.9 110.931 219.9C110.931 219.9 110.408 230.638 112.259 232.756C112.259 232.85 112.242 232.948 112.239 233.042C112.239 233.085 112.239 233.134 112.239 233.177C112.217 233.993 112.371 234.86 113.057 235.126C114.457 235.676 116.309 237.325 116.659 237.797C117.009 238.269 119.045 239.446 121.7 239.131C123.363 238.94 125.037 238.861 126.71 238.896C126.71 238.896 127.757 238.701 127.419 237.37C127.2 236.54 126.382 235.264 125.8 234.425C125.906 234.453 126.01 234.476 126.108 234.496L126.209 234.516H126.287C126.33 234.519 126.373 234.519 126.416 234.516H126.472C126.524 234.521 126.577 234.521 126.629 234.516C127.332 234.448 129.953 235.696 130.421 236.52C130.888 237.345 132.538 237.972 133.781 238.129C134.521 238.221 136.386 238.066 137.952 237.86C138.74 237.777 139.521 237.631 140.287 237.425C140.657 237.282 140.735 236.824 140.629 236.308C140.503 235.654 140.161 235.064 139.66 234.637C139.206 234.307 138.607 233.44 138.164 232.73L138.047 232.538C138.828 231.777 140.24 229.287 140.668 228.771C141.189 228.144 139.828 205.218 139.828 205.218V193.725L141.914 182.848L143.374 177.091L144.625 168.4C144.625 168.4 146.815 158.25 146.14 157.254C146.14 157.234 145.58 146.782 144.992 144.272C144.737 143.153 144.802 140.634 144.953 138.183C145.111 138.023 145.221 137.82 145.271 137.598C145.32 137.376 145.307 137.144 145.233 136.93C145.191 136.783 145.137 136.64 145.071 136.503C145.071 136.46 145.071 136.414 145.071 136.371C146.28 135.802 147.545 135.363 148.843 135.06C150.929 134.642 150.409 133.543 150.409 133.543C150.409 133.543 150.879 132.601 151.19 132.026C151.501 131.451 151.243 126.373 151.19 125.955C151.17 125.786 151.042 124.853 150.893 123.793C151.562 123.307 152.433 122.703 153.383 122.13C155.189 121.037 154.783 119.883 154.635 119.583ZM127.413 192.157C127.413 192.157 125.847 196.239 126.475 197.283C127.102 198.328 126.371 202.207 126.371 202.207L125.847 207.964C125.847 207.964 124.388 218.641 124.909 221.151C125.318 223.121 125.469 229.003 125.517 231.456C125.481 231.471 125.446 231.488 125.413 231.508L125.343 231.545C125.584 230.58 125.483 228.628 124.287 224.701L124.187 208.479C124.187 208.479 124.002 189.741 125.45 187.645C126.898 185.55 127.41 181.992 127.41 181.992C127.41 181.992 127.096 187.124 126.892 188.484C126.688 189.844 127.413 192.157 127.413 192.157ZM124.497 232.478C124.483 232.513 124.467 232.547 124.455 232.578L124.377 232.475C124.417 232.479 124.457 232.48 124.497 232.478Z" fill="url(#paint0_linear_693_148)"/>
<path d="M140.464 238.908C139.654 239.225 135.266 239.766 134.039 239.615C132.813 239.463 131.188 238.827 130.726 237.997C130.264 237.167 127.674 235.913 126.979 235.994C126.694 236.002 126.41 235.962 126.139 235.873C125.66 235.725 125.192 235.541 124.739 235.324C124.675 234.963 124.686 234.592 124.769 234.236C124.785 234.164 124.806 234.093 124.831 234.024C124.994 233.554 125.333 233.17 125.772 232.954L125.873 232.905C126.067 232.819 126.27 232.756 126.478 232.716C128.679 232.284 137.761 233.151 137.761 233.151C137.761 233.151 138.016 233.618 138.366 234.196C138.803 234.912 139.397 235.785 139.845 236.114C140.341 236.547 140.678 237.141 140.8 237.797C140.906 238.304 140.828 238.767 140.464 238.908Z" fill="white"/>
<path opacity="0.1" d="M140.464 238.908C139.654 239.225 135.269 239.766 134.042 239.615C132.815 239.463 131.191 238.825 130.726 237.997C130.261 237.17 127.676 235.913 126.982 235.994C126.287 236.074 124.741 235.324 124.741 235.324C124.741 235.324 124.5 234.179 125.2 233.397L126.601 234.413C126.601 234.413 130.348 235.601 131.043 236.703C131.737 237.806 133.003 238.421 134.832 238.533C136.198 238.624 139.338 238.08 140.808 237.808C140.906 238.304 140.831 238.767 140.464 238.908Z" fill="black"/>
<path d="M127.057 240.367C125.405 240.335 123.753 240.414 122.111 240.605C119.482 240.92 117.474 239.746 117.123 239.263C116.773 238.779 114.961 237.144 113.57 236.572C112.889 236.303 112.729 235.427 112.76 234.608C112.76 234.565 112.76 234.516 112.76 234.474C112.786 233.955 112.861 233.44 112.984 232.936L123.881 232.699L124.825 234.007L124.971 234.207L125.545 235.006C125.545 235.006 125.805 235.355 126.147 235.865C126.724 236.724 127.53 237.992 127.746 238.83C128.091 240.173 127.057 240.367 127.057 240.367Z" fill="white"/>
<path opacity="0.1" d="M127.057 240.367C125.405 240.335 123.753 240.414 122.111 240.605C119.484 240.92 117.474 239.746 117.126 239.263C116.779 238.779 114.961 237.13 113.57 236.578C112.889 236.308 112.729 235.432 112.76 234.614C113.539 234.8 115.174 235.275 115.816 236.102C116.656 237.207 118.16 239.065 120.297 239.182C122.022 239.277 126.223 238.962 127.763 238.836C128.093 240.173 127.057 240.367 127.057 240.367Z" fill="black"/>
<path opacity="0.1" d="M125.761 232.942C125.635 233.898 125.245 234.156 124.965 234.213C124.897 234.227 124.827 234.227 124.758 234.213C124.721 234.21 124.685 234.205 124.649 234.196C124.649 234.196 114.864 236.406 112.886 234.617C112.836 234.571 112.789 234.521 112.746 234.468C112.772 233.949 112.847 233.434 112.97 232.931L123.867 232.693L124.811 234.001C124.975 233.532 125.313 233.147 125.752 232.931L125.761 232.942Z" fill="black"/>
<path opacity="0.1" d="M138.363 234.184C138.145 234.431 137.963 234.571 137.848 234.522C137.333 234.31 133.109 233.575 131.768 234.207C130.427 234.84 125.887 234.31 125.887 234.31C125.887 234.31 125.887 233.761 125.862 232.879C126.056 232.793 126.259 232.73 126.467 232.69C128.668 232.258 137.75 233.125 137.75 233.125C137.75 233.125 138.016 233.606 138.363 234.184Z" fill="black"/>
<path d="M144.754 169.434L143.516 178.176L142.077 183.97L140.016 194.922V206.515C140.016 206.515 141.354 229.581 140.839 230.211C140.324 230.841 138.366 234.428 137.851 234.219C137.335 234.01 133.112 233.271 131.771 233.901C130.429 234.531 125.889 234.007 125.889 234.007C125.889 234.007 125.786 225.056 125.27 222.528C124.755 220.001 126.197 209.257 126.197 209.257L126.713 203.466C126.713 203.466 127.435 199.568 126.816 198.514C126.197 197.461 127.743 193.362 127.743 193.362C127.743 193.362 127.024 191.04 127.231 189.672C127.438 188.304 127.743 183.142 127.743 183.142C127.743 183.142 127.231 186.726 125.8 188.83C124.369 190.934 124.551 209.79 124.551 209.79L124.652 226.106C127.231 234.745 124.652 233.901 124.652 233.901C124.652 233.901 114.866 236.114 112.889 234.322C110.912 232.53 111.478 221.251 111.478 221.251C111.478 221.251 111.273 212.194 112.096 209.458C112.92 206.721 113.18 196.608 113.18 196.608C113.18 196.608 113.127 176.384 113.18 175.019C113.219 173.874 113.18 163.623 113.18 160.42C113.18 159.824 113.18 159.472 113.18 159.472L114.362 156.472L128.365 154.68H135.064C135.064 154.68 145.146 157.102 146.188 158.147C146.21 158.164 146.229 158.185 146.244 158.21C146.919 159.22 144.754 169.434 144.754 169.434Z" fill="#0C4A6B"/>
<path opacity="0.1" d="M127.752 215.355C127.752 215.355 130.832 222.937 132.286 223.464C133.739 223.991 127.752 215.355 127.752 215.355Z" fill="black"/>
<path opacity="0.1" d="M128.892 226.519C128.892 226.519 139.293 227.045 139.189 228.205C139.086 229.364 128.892 226.519 128.892 226.519Z" fill="black"/>
<path opacity="0.1" d="M114.976 223.487C115.387 223.885 122.91 224.632 122.291 225.359C121.672 226.086 115.595 227.5 115.595 227.5L114.976 223.487Z" fill="black"/>
<path opacity="0.1" d="M113.74 210.405C113.74 210.72 115.286 220.516 115.701 220.937C116.115 221.357 119.512 221.778 119.512 221.778L113.74 210.405Z" fill="black"/>
<path d="M124.957 76.5128C123.481 78.1989 122.842 80.5891 121.123 82.0146C120.078 82.8734 118.756 83.2828 117.541 83.8667C116.325 84.4507 115.121 85.3409 114.76 86.6634C114.357 88.1519 115.135 89.6719 115.544 91.1605C115.967 92.7005 115.992 94.3093 116.017 95.9209C116.045 97.8703 116.076 99.8196 116.043 101.769C115.992 104.806 115.746 107.984 114.169 110.557C119.863 112.409 125.917 112.661 131.888 112.899C133.036 112.982 134.188 112.953 135.33 112.81C136.32 112.608 137.298 112.355 138.262 112.051C140.169 111.536 142.133 111.279 144.104 111.287C144.964 111.287 145.841 111.341 146.67 111.112C147.499 110.883 148.297 110.297 148.521 109.449C148.72 108.688 148.429 107.878 148.048 107.194C147.353 105.945 146.367 104.904 145.622 103.673C144.862 102.372 144.411 100.908 144.305 99.397C144.2 97.886 144.443 96.3708 145.015 94.9734C145.676 93.4018 146.74 92.0335 147.39 90.4591C148.055 88.7688 148.232 86.9187 147.899 85.1285C147.567 83.3384 146.739 81.6834 145.513 80.3601C143.253 77.9956 140.01 77.0796 136.907 76.593C135.6 76.4352 134.354 75.9429 133.283 75.1617C132.093 74.3602 130.55 74.1656 129.155 74.343C127.546 74.5273 126.056 75.2976 124.957 76.5128Z" fill="#3F3D56"/>
<g opacity="0.1">
<path opacity="0.1" d="M145.102 93.3217C144.531 94.701 144.286 96.1986 144.387 97.6928C144.45 96.6243 144.692 95.5748 145.102 94.5898C145.76 93.0182 146.824 91.65 147.474 90.0756C148.005 88.7609 148.228 87.3376 148.126 85.9191C148.068 86.9134 147.848 87.8907 147.474 88.8103C146.824 90.3847 145.76 91.7501 145.102 93.3217Z" fill="black"/>
<path opacity="0.1" d="M116.101 95.5316C116.118 96.6537 116.135 97.7786 116.138 98.9008C116.138 97.355 116.124 95.8121 116.101 94.2692C116.079 92.669 116.051 91.0488 115.628 89.5059C115.348 88.5269 114.934 87.5336 114.788 86.546C114.539 87.9487 115.247 89.3714 115.628 90.7712C116.051 92.2998 116.079 93.9314 116.101 95.5316Z" fill="black"/>
<path opacity="0.1" d="M146.765 109.475C145.925 109.707 145.062 109.655 144.203 109.65C142.232 109.637 140.269 109.889 138.363 110.4C137.399 110.702 136.42 110.954 135.431 111.155C134.288 111.3 133.135 111.331 131.986 111.247C126.217 111.015 120.367 110.766 114.841 109.08C114.677 109.454 114.49 109.818 114.281 110.168C119.975 112.017 126.029 112.272 131.998 112.509C133.146 112.593 134.3 112.563 135.442 112.418C136.428 112.219 137.403 111.967 138.363 111.665C140.265 111.152 142.225 110.897 144.191 110.906C145.051 110.906 145.925 110.961 146.754 110.729C147.583 110.497 148.381 109.916 148.605 109.069C148.699 108.676 148.69 108.265 148.577 107.878C148.328 108.679 147.558 109.237 146.765 109.475Z" fill="black"/>
</g>
<path d="M138.47 106.083C138.263 106.558 137.389 110.663 137.181 111.084C136.974 111.505 135.843 118.24 135.739 118.618C135.636 118.996 128.281 117.038 128.281 117.038L123.853 113.245L119.302 108.616C119.302 108.616 119.168 104.44 122.52 103.1C122.748 103.009 122.982 102.934 123.221 102.877C127.287 101.878 126.878 89.2397 126.878 89.2397L135.224 92.9238C135.224 92.9238 133.678 100.298 133.731 101.72C133.745 102.198 134.112 102.496 134.591 102.676C135.331 102.892 136.102 102.977 136.871 102.928C136.871 102.928 138.677 105.611 138.47 106.083Z" fill="#FBBEBE"/>
<path d="M153.411 119.932L154.596 120.25C154.596 120.25 155.472 121.612 153.411 122.88C152.102 123.693 150.846 124.591 149.65 125.568L143.558 127.463L142.385 123.699L148.053 119.302L153.411 119.932Z" fill="#0C4A6B"/>
<path opacity="0.1" d="M153.411 119.932L154.596 120.25C154.596 120.25 155.472 121.612 153.411 122.88C152.102 123.693 150.846 124.591 149.65 125.568L143.558 127.463L142.385 123.699L148.053 119.302L153.411 119.932Z" fill="black"/>
<path d="M108.957 123.567L106.588 125.937C106.588 125.937 110.862 130.993 114.149 131.308C117.437 131.622 119.557 127.463 119.557 127.463L116.712 122.883L108.957 123.567Z" fill="#0C4A6B"/>
<path opacity="0.1" d="M108.957 123.567L106.588 125.937C106.588 125.937 110.862 130.993 114.149 131.308C117.437 131.622 119.557 127.463 119.557 127.463L116.712 122.883L108.957 123.567Z" fill="black"/>
<path opacity="0.1" d="M131.463 97.4981C136.015 97.4981 139.705 93.7264 139.705 89.0737C139.705 84.421 136.015 80.6492 131.463 80.6492C126.911 80.6492 123.22 84.421 123.22 89.0737C123.22 93.7264 126.911 97.4981 131.463 97.4981Z" fill="black"/>
<path d="M131.463 96.8655C136.015 96.8655 139.705 93.0937 139.705 88.441C139.705 83.7883 136.015 80.0166 131.463 80.0166C126.911 80.0166 123.22 83.7883 123.22 88.441C123.22 93.0937 126.911 96.8655 131.463 96.8655Z" fill="#FBBEBE"/>
<path opacity="0.1" d="M146.25 159.166C144.373 159.385 142.524 159.809 140.735 160.428C137.655 161.476 113.514 160.445 113.177 160.428C113.177 159.833 113.177 159.481 113.177 159.481L114.359 156.481L128.362 154.689H135.061C135.061 154.689 145.143 157.111 146.185 158.155C146.227 158.785 146.25 159.166 146.25 159.166Z" fill="black"/>
<path opacity="0.1" d="M138.47 106.083C138.263 106.558 137.389 110.663 137.181 111.084C136.974 111.505 135.843 118.24 135.739 118.618C135.636 118.996 128.281 117.038 128.281 117.038L123.853 113.245L119.302 108.616C119.302 108.616 119.168 104.44 122.52 103.1L130.844 112.881L134.591 102.676C135.331 102.892 136.102 102.977 136.871 102.928C136.871 102.928 138.677 105.611 138.47 106.083Z" fill="black"/>
<path d="M130.844 113.196L122.324 103.177C121.826 102.852 121.256 102.658 120.666 102.614C120.076 102.569 119.484 102.676 118.944 102.923C117.037 103.767 114.668 104.451 114.049 104.872C113.43 105.293 111.111 107.898 111.111 107.898L118.017 126.364L114.976 138.527C114.976 138.527 115.441 144.741 114.256 147.006C113.535 148.454 113.197 150.069 113.276 151.692C113.276 151.692 113.637 154.695 113.225 156.272C112.985 157.326 112.967 158.421 113.172 159.484C113.172 159.484 137.646 160.537 140.736 159.484C142.524 158.862 144.373 158.439 146.25 158.221C146.25 158.221 145.69 147.687 145.13 145.159C144.57 142.632 145.595 132.996 145.595 132.996L144.925 122.674L148.941 112.083C148.941 112.083 146.765 105.293 144.497 104.609C144.497 104.609 140.377 103.607 139.5 103.134C138.624 102.662 136.047 102.238 136.047 102.238L134.695 102.702L130.844 113.196Z" fill="#0C4A6B"/>
<path opacity="0.1" d="M142.73 122.326L124.803 121.08C124.349 121.048 123.956 121.398 123.926 121.862L122.001 150.793C121.97 151.257 122.313 151.658 122.767 151.69L140.694 152.936C141.147 152.967 141.54 152.617 141.571 152.153L143.496 123.222C143.527 122.759 143.184 122.357 142.73 122.326Z" fill="black"/>
<path d="M143.347 121.697L125.42 120.451C124.966 120.42 124.574 120.77 124.543 121.234L122.618 150.165C122.587 150.628 122.93 151.03 123.384 151.061L141.311 152.307C141.765 152.339 142.157 151.988 142.188 151.525L144.113 122.594C144.144 122.13 143.801 121.729 143.347 121.697Z" fill="#3F3D56"/>
<path d="M142.756 123.965L125.706 122.78L123.954 149.118L141.004 150.303L142.756 123.965Z" fill="white"/>
<path opacity="0.1" d="M141.227 130.688L127.3 129.691L127.028 133.659L140.955 134.655L141.227 130.688Z" fill="black"/>
<path opacity="0.1" d="M140.723 146.454L138.513 146.301L138.375 148.368L140.586 148.522L140.723 146.454Z" fill="black"/>
<path opacity="0.1" d="M138.543 141.464L127.229 140.678L127.092 142.745L138.405 143.532L138.543 141.464Z" fill="black"/>
<path d="M140.646 122.98L128.865 122.162L128.654 125.34L140.434 126.159L140.646 122.98Z" fill="#3F3D56"/>
<path opacity="0.1" d="M140.646 122.98L128.865 122.162L128.654 125.34L140.434 126.159L140.646 122.98Z" fill="black"/>
<path opacity="0.1" d="M131.874 158.585C131.874 158.585 131.771 174.174 127.752 183.125C127.752 183.125 132.597 171.329 132.597 170.856C132.597 170.384 135.274 165.432 134.557 163.958C133.84 162.484 131.874 158.585 131.874 158.585Z" fill="black"/>
<path opacity="0.1" d="M132.093 86.3342C131.939 84.9544 132.269 83.5636 133.025 82.4097C132.935 83.5662 133.255 84.7173 133.927 85.6527C134.598 86.5881 135.577 87.2456 136.683 87.505C136.588 87.4212 136.521 87.3102 136.49 87.1866C136.458 87.0629 136.464 86.9324 136.506 86.8123C137.081 87.4764 137.52 88.2636 138.17 88.8475C138.82 89.4315 139.794 89.7807 140.559 89.3656C141.598 88.7931 141.609 87.2846 141.34 86.1109C140.763 83.6115 139.58 81.3009 137.898 79.3926C137.479 78.8157 136.934 78.346 136.308 78.0202C135.681 77.6944 134.989 77.5214 134.286 77.5147C132.695 77.3888 131.042 77.5319 129.617 78.2618C128.815 78.7093 128.063 79.2459 127.377 79.862L123.456 83.131C123.078 83.4088 122.755 83.7564 122.503 84.1558C122.335 84.4897 122.234 84.8547 122.207 85.2293C122.106 86.2999 122.3 87.3779 122.766 88.3421C123.232 89.3064 123.952 90.1188 124.845 90.6881C124.826 89.842 125.054 89.0092 125.499 88.2956C125.944 87.582 126.587 87.0198 127.346 86.6806C127.465 86.7821 127.561 86.9085 127.628 87.0512C127.695 87.1939 127.732 87.3496 127.735 87.5079L128.561 86.0022C128.684 85.7282 128.878 85.4936 129.121 85.3237C129.631 85.0375 130.267 85.3753 130.701 85.7789C131.135 86.1825 131.558 86.6863 132.14 86.7493L132.163 84.5079" fill="black"/>
<path d="M132.093 86.0193C131.938 84.6386 132.269 83.2467 133.025 82.0919C132.773 84.382 134.462 86.7464 136.686 87.1873C136.591 87.1042 136.524 86.9937 136.492 86.8705C136.461 86.7472 136.467 86.6171 136.509 86.4974C137.084 87.1615 137.523 87.9458 138.173 88.5326C138.823 89.1195 139.797 89.4658 140.562 89.0479C141.601 88.4754 141.612 86.9668 141.343 85.7961C140.766 83.2966 139.583 80.9861 137.901 79.0777C137.38 78.4277 136.722 77.9054 135.977 77.5491C135.438 77.3452 134.871 77.2274 134.297 77.1998C132.706 77.0739 131.054 77.2142 129.628 77.9441C128.827 78.3935 128.075 78.931 127.388 79.5471L123.467 82.8161C123.089 83.0932 122.766 83.441 122.515 83.8409C122.346 84.1747 122.245 84.5398 122.218 84.9144C122.118 85.9846 122.312 87.0621 122.778 88.0259C123.244 88.9896 123.964 89.8015 124.856 90.3704C124.838 89.5244 125.066 88.6919 125.511 87.9784C125.956 87.265 126.599 86.7027 127.357 86.3628C127.475 86.4648 127.571 86.5912 127.639 86.7338C127.706 86.8764 127.742 87.0319 127.746 87.1901L128.57 85.6901C128.692 85.4157 128.886 85.1809 129.13 85.0117C129.64 84.7255 130.275 85.0632 130.709 85.4669C131.143 85.8705 131.566 86.3714 132.149 86.4373L132.171 84.193" fill="#3F3D56"/>
<path d="M135.997 139.157C135.277 138.785 123.374 140.682 123.374 140.682C123.374 140.682 121.414 140.11 116.675 139.314C111.937 138.518 111.634 133.784 111.634 133.784L111.116 124.306L112.715 122.875L119.566 127.455C119.566 127.455 119.672 129.77 119.566 130.188C119.498 130.475 119.319 130.815 119.336 131.047C119.341 131.11 119.366 131.169 119.408 131.216C119.45 131.262 119.505 131.294 119.566 131.305C120.031 131.425 126.365 132.473 126.365 132.473C126.365 132.473 141.049 131.445 144.709 136.5C144.999 136.871 145.219 137.295 145.356 137.748C146.264 141.203 136.649 139.486 135.997 139.157Z" fill="#FBBEBE"/>
<path opacity="0.1" d="M145.365 137.768C144.805 138.023 144.457 138.206 144.457 138.206C144.457 138.206 139.203 138.049 136.252 136.955C133.3 135.862 129.712 136.057 129.712 136.057C129.712 136.057 117.412 133.892 119.319 131.067C119.325 131.13 119.35 131.189 119.391 131.236C119.433 131.282 119.488 131.314 119.549 131.325C120.014 131.445 126.349 132.493 126.349 132.493C126.349 132.493 141.032 131.465 144.693 136.52C144.992 136.889 145.22 137.313 145.365 137.768Z" fill="black"/>
<path d="M150.473 121.091C150.473 121.091 151.195 126.304 151.246 126.728C151.296 127.151 151.557 132.255 151.246 132.836C150.935 133.417 150.473 134.362 150.473 134.362C150.473 134.362 150.988 135.467 148.927 135.891C146.866 136.314 144.446 137.574 144.446 137.574C144.446 137.574 139.189 137.416 136.254 136.311C133.319 135.206 129.712 135.415 129.712 135.415C129.712 135.415 114.099 132.676 120.798 129.332C127.497 125.989 132.235 130.518 132.235 130.518L139.705 130.045C139.705 130.045 142.488 128.305 143.261 128.465C143.807 128.536 144.362 128.445 144.858 128.202L144.911 122.671L150.473 121.091Z" fill="#FBBEBE"/>
<path opacity="0.1" d="M112.598 108.296L111.102 108.215L106.571 126.249C106.571 126.249 111.464 124.984 113.573 126.249C115.681 127.515 119.549 127.775 119.549 127.775L118.107 113.4L112.598 108.296Z" fill="black"/>
<path d="M112.598 107.978L111.102 107.898L106.571 125.932C106.571 125.932 111.464 124.666 113.573 125.932C115.681 127.197 119.549 127.457 119.549 127.457L118.107 113.082L112.598 107.978Z" fill="#0C4A6B"/>
<path opacity="0.1" d="M146.869 111.928L148.927 112.403C148.927 112.403 154.184 120.132 154.596 120.564C155.007 120.997 152.635 122.568 151.658 122.568C150.68 122.568 145.888 123.141 144.497 124.463C143.105 125.786 143.684 119.13 143.684 118.979C143.684 118.827 145.412 114.628 145.412 114.628L146.869 111.928Z" fill="black"/>
<path d="M146.869 111.613L148.927 112.086C148.927 112.086 154.184 119.829 154.596 120.25C155.007 120.67 152.635 122.253 151.658 122.253C150.68 122.253 145.888 122.826 144.497 124.148C143.105 125.471 143.684 118.815 143.684 118.664C143.684 118.512 145.424 114.298 145.424 114.298L146.869 111.613Z" fill="#0C4A6B"/>
<g opacity="0.1">
<path opacity="0.1" d="M133.011 82.1177C132.999 81.8982 133.004 81.6781 133.025 81.4593C132.599 82.1133 132.306 82.8483 132.163 83.6205V84.2846C132.163 84.2846 132.163 84.2703 132.163 84.2617V84.4192C132.163 84.8829 132.163 85.3495 132.149 85.8132H132.11V86.0279C132.11 85.9535 132.11 85.8819 132.096 85.8075C131.535 85.7159 131.135 85.235 130.718 84.8514C130.3 84.4678 129.648 84.1014 129.138 84.3963C128.894 84.5655 128.7 84.8002 128.578 85.0747L127.746 86.5747C127.743 86.4168 127.706 86.2616 127.639 86.1194C127.572 85.9773 127.476 85.8514 127.357 85.7503C126.598 86.0895 125.955 86.6516 125.51 87.3652C125.065 88.0788 124.837 88.9116 124.856 89.7578C124.091 89.2678 123.451 88.5986 122.989 87.8057C122.526 87.0128 122.256 86.1189 122.198 85.1978C122.15 86.2263 122.37 87.2494 122.837 88.1617C123.305 89.074 124.001 89.8424 124.856 90.3876C124.838 89.5416 125.066 88.7091 125.511 87.9956C125.956 87.2822 126.599 86.7199 127.357 86.38C127.475 86.4819 127.571 86.6084 127.638 86.751C127.705 86.8936 127.742 87.0491 127.746 87.2073L128.57 85.7073C128.692 85.4329 128.886 85.1981 129.13 85.0289C129.639 84.7426 130.275 85.0804 130.709 85.484C131.143 85.8877 131.566 86.3886 132.149 86.4544C132.149 85.7216 132.156 84.9907 132.171 84.2617C132.309 83.4969 132.594 82.768 133.011 82.1177Z" fill="black"/>
<path opacity="0.1" d="M132.065 85.0003C132.079 84.8056 132.101 84.611 132.129 84.4278L132.16 83.6377C132.076 84.0865 132.044 84.5438 132.065 85.0003Z" fill="black"/>
<path opacity="0.1" d="M140.562 88.4153C139.797 88.8332 138.823 88.484 138.173 87.9C137.523 87.3161 137.083 86.5289 136.509 85.8648C136.467 85.9849 136.461 86.1154 136.492 86.2391C136.524 86.3627 136.591 86.4737 136.686 86.5575C136.63 86.5575 136.576 86.5289 136.523 86.5146C137.083 87.1729 137.529 87.9458 138.173 88.5183C138.817 89.0908 139.797 89.4515 140.562 89.0336C141.326 88.6157 141.545 87.6367 141.477 86.6834C141.427 87.4334 141.164 88.0832 140.562 88.4153Z" fill="black"/>
<path opacity="0.1" d="M136.506 86.5088C135.57 86.2479 134.734 85.7007 134.11 84.9404C133.486 84.1801 133.105 83.2432 133.017 82.2551C132.857 84.5022 134.515 86.755 136.686 87.1872C136.593 87.1052 136.527 86.9968 136.495 86.876C136.463 86.7551 136.467 86.6273 136.506 86.5088Z" fill="black"/>
</g>
<path d="M271.002 133.294C271.002 133.294 269.899 133.137 269.899 131.496C269.899 129.856 269.109 126.785 269.109 126.785C269.109 126.785 268.425 121.44 267.482 120.593C266.538 119.746 265.325 114.771 265.325 114.771C265.325 114.771 265.118 112.071 264.695 111.49C264.272 110.909 263.701 109.486 262.858 107.457C262.015 105.427 258.509 104.036 258.509 104.036C258.509 104.036 252.154 100.269 250.353 99.041C250.189 98.9392 250.035 98.8203 249.894 98.6861C249.58 98.2681 248.214 98.2595 248.214 98.2595C248.071 97.3349 247.934 96.2758 247.889 95.3169C247.889 95.2138 247.889 95.1107 247.889 95.0077C249.897 93.7945 251.409 91.8817 252.148 89.6204C252.182 89.5116 252.21 89.4 252.241 89.2883C252.364 89.2496 252.477 89.1846 252.574 89.0978C252.67 89.011 252.748 88.9042 252.801 88.7845C252.961 88.4153 252.966 87.9859 253.168 87.6395C253.403 87.233 253.851 87.0155 254.204 86.7121C255.095 85.9363 255.324 84.6338 255.282 83.4516C255.254 82.4898 255.103 81.5223 255.162 80.569C255.162 80.4889 255.162 80.4087 255.179 80.3286C255.195 80.1883 255.215 80.0423 255.24 79.9049C255.378 79.195 255.677 78.5252 255.845 77.821C256.013 77.1168 256.03 76.3239 255.638 75.717C255.064 74.8268 253.868 74.6493 252.818 74.572C251.628 74.469 250.577 74.6007 249.802 73.5902C249.446 73.0624 249.045 72.5681 248.603 72.1131C248.446 71.9643 246.923 71.011 246.923 70.9509C245.432 70.2425 243.741 70.1093 242.162 70.5759C241.369 70.8106 240.627 71.1942 239.823 71.386C238.098 71.8039 236.109 71.3517 234.642 72.3621C233.824 72.9347 233.334 73.8478 232.875 74.7323C232.501 75.4613 232.122 76.1913 231.738 76.9222C231.116 78.1216 230.489 79.341 230.228 80.6692C230.174 80.9593 230.139 81.253 230.125 81.548C230.125 81.6539 230.125 81.7599 230.125 81.8658C230.125 81.9116 230.125 81.9574 230.125 82.0032C230.125 82.1005 230.125 82.1978 230.141 82.2894C230.158 82.381 230.141 82.4068 230.161 82.4669C230.181 82.527 230.186 82.6616 230.203 82.7532C230.22 82.8448 230.253 83.0079 230.287 83.131C230.287 83.1854 230.321 83.2369 230.337 83.2913C230.354 83.3457 230.399 83.4831 230.435 83.5776C230.472 83.672 230.475 83.6778 230.497 83.7264C230.539 83.8266 230.589 83.9239 230.64 84.0127C230.662 84.0499 230.679 84.0871 230.702 84.1243C230.778 84.2583 230.864 84.3865 230.959 84.5079C231.556 85.2722 232.441 85.7588 233.093 86.4745C233.093 86.5031 233.093 86.5317 233.093 86.5603C233.093 86.6376 233.093 86.7149 233.093 86.7951C233.133 88.3912 233.554 89.9533 234.319 91.3452C235.085 92.7371 236.171 93.9168 237.485 94.7816C237.485 94.8903 237.499 95.002 237.504 95.1136C237.559 95.9624 237.548 96.8142 237.473 97.6613C237.359 97.5243 237.216 97.4152 237.055 97.3419C236.894 97.2686 236.72 97.233 236.544 97.2376C236.423 97.2315 236.303 97.2421 236.185 97.2691L236.16 97.2491V97.2748C235.544 97.4294 234.785 98.0849 234.059 99.9484C234.059 99.9484 231.853 102.49 230.172 102.384C228.492 102.279 224.238 105.032 224.238 105.032C224.238 105.032 220.087 107.783 219.197 110.589C218.699 112.18 218.101 113.736 217.407 115.249L212.262 126.046L211.319 134.634C211.319 134.634 211.842 138.444 211.739 139.028C211.635 139.612 213.892 144.85 213.892 144.85C213.892 144.85 221.35 158.241 224.397 158.928L224.616 158.774C224.747 158.841 224.885 158.893 225.028 158.928L225.655 158.479C225.694 158.982 225.677 159.488 225.604 159.987C225.187 161.313 225.764 169.94 226.498 171.632C227.232 173.324 226.971 195.509 226.971 195.509L226.867 197.464C226.867 197.464 226.867 197.527 226.893 197.635L226.867 198.099L226.943 198.139C227.022 198.761 226.996 199.392 226.867 200.006C226.604 200.864 226.498 203.289 226.498 203.289C226.498 203.289 224.397 216.995 225.394 219.749C226.391 222.502 227.234 225.519 227.234 225.519C227.234 225.519 228.285 228.955 227.285 229.527C226.285 230.1 223.454 231.116 224.03 232.544C224.563 233.867 226.582 237.41 226.881 237.929L226.856 238.215L226.445 242.775C226.511 243.377 226.671 243.964 226.918 244.515C227.369 245.511 228.243 246.539 229.912 246.427C230.192 246.407 230.514 246.376 230.83 246.333C233.88 245.912 237.633 244.521 237.633 244.521C237.438 244.395 237.26 244.244 237.104 244.072C236.954 243.923 236.835 243.745 236.755 243.548C236.674 243.351 236.634 243.14 236.636 242.927C236.681 242.094 235.16 238.14 234.779 237.164L234.692 236.947C234.692 236.947 238.159 233.24 237.583 229.959C237.583 229.959 233.746 227.669 235.009 226.41C236.272 225.15 238.529 221.543 238.529 221.543C238.529 221.543 238.633 208.047 238.529 206.034C238.421 204.634 238.486 203.226 238.722 201.843C238.764 201.637 238.815 201.434 238.868 201.231C240.616 201.5 242.382 201.637 244.15 201.64C244.796 201.64 245.449 201.627 246.11 201.6C246.11 201.791 246.119 201.997 246.136 202.218C246.281 205.562 246.553 211.427 246.774 213.606C247.088 216.726 248.821 225.144 248.821 225.144C248.821 225.144 245.514 227.311 249.398 232.662C249.398 232.662 249.398 234.597 249.141 234.88C248.865 235.798 248.644 236.732 248.477 237.677C248.314 238.681 248.247 239.703 248.51 240.23C249.141 241.495 252.921 241.392 252.921 241.392C252.952 241.385 252.983 241.38 253.014 241.378C253.727 241.301 254.449 241.37 255.136 241.581C255.823 241.793 256.462 242.142 257.016 242.609C258.453 243.788 263.903 243.273 266.857 242.895C268.014 242.743 268.787 242.609 268.787 242.609C268.824 242.475 268.837 242.335 268.826 242.197C268.795 241.455 268.227 239.829 264.373 238.378C264.373 238.378 260.749 235.888 260.799 233.718H260.718H260.301C260.564 233.709 260.749 233.709 260.749 233.709C260.749 233.709 259.329 228.416 259.909 227.984C260.489 227.552 258.752 221.687 258.752 221.687C258.752 221.687 257.758 211.839 257.702 211.152C257.706 210.56 257.794 209.972 257.965 209.406L257.702 204.005C257.702 204.005 257.652 202.21 257.702 201.626C257.696 201.119 257.657 200.613 257.584 200.112C257.559 199.911 257.534 199.702 257.506 199.496C258.864 199.144 259.746 198.821 259.746 198.821L259.59 180.028C260.743 177.738 260.956 172.711 260.951 169.15C260.951 166.86 260.85 165.166 260.85 165.166L262.427 162.535C262.427 162.535 262.791 159.386 262.214 158.696C261.959 158.384 262.074 158.061 262.284 157.795C262.394 157.702 262.511 157.618 262.634 157.543C262.62 157.523 262.608 157.502 262.597 157.48C262.708 157.386 262.825 157.301 262.948 157.225C262.948 157.225 262.387 156.338 262.889 155.963C263.359 156.289 263.779 156.549 264.099 156.736C264.076 156.944 264.054 157.065 264.054 157.065L264.188 156.778C264.496 156.956 264.684 157.065 264.684 157.065C264.684 157.065 267.154 152.035 267.101 151.297C267.048 150.558 268.781 147.432 268.781 147.432C268.781 147.432 268.991 145.789 269.938 145.102C270.884 144.415 270.672 139.437 270.672 139.437C270.672 139.437 270.935 136.844 271.565 135.787C272.195 134.731 271.002 133.294 271.002 133.294ZM223.739 131.087L223.787 132.287C223.507 131.826 223.305 131.496 223.305 131.496L223.739 131.087Z" fill="url(#paint1_linear_693_148)"/>
<path d="M264.83 154.889L264.225 157.523C264.225 157.523 259.38 154.989 258.509 151.783C257.638 148.577 259.968 147.355 259.968 147.355L264.485 149.307L264.83 154.889Z" fill="white"/>
<path opacity="0.1" d="M264.83 154.889L264.225 157.523C264.225 157.523 259.38 154.989 258.509 151.783C257.638 148.577 259.968 147.355 259.968 147.355L264.485 149.307L264.83 154.889Z" fill="black"/>
<path d="M237.639 244.518C237.639 244.518 233.158 246.201 230.077 246.413C228.441 246.525 227.582 245.5 227.139 244.512C226.899 243.968 226.742 243.388 226.674 242.795L227.08 238.258L227.293 235.845L233.838 234.104L234.765 237.004L234.852 237.222C235.222 238.192 236.717 242.125 236.672 242.947C236.669 243.159 236.707 243.37 236.786 243.567C236.864 243.764 236.981 243.942 237.129 244.092C237.28 244.255 237.452 244.399 237.639 244.518Z" fill="white"/>
<path d="M268.232 242.211C268.244 242.35 268.231 242.489 268.193 242.623C268.193 242.623 258.61 244.255 256.649 242.623C256.098 242.147 255.456 241.793 254.763 241.584C254.071 241.376 253.343 241.317 252.628 241.412C252.628 241.412 248.92 241.515 248.301 240.267C248.043 239.743 248.11 238.727 248.27 237.728C248.433 236.789 248.65 235.859 248.92 234.946L249.068 234.826L249.95 234.101L260.279 233.789H260.357C260.307 235.948 263.861 238.424 263.861 238.424C267.644 239.855 268.202 241.472 268.232 242.211Z" fill="white"/>
<path opacity="0.1" d="M268.235 242.211C268.245 242.35 268.231 242.489 268.193 242.623C268.193 242.623 258.61 244.255 256.652 242.623C256.101 242.146 255.458 241.792 254.765 241.584C254.072 241.375 253.344 241.317 252.628 241.412C252.628 241.412 248.917 241.515 248.298 240.267C248.043 239.743 248.107 238.727 248.267 237.725C249.695 237.871 251.95 238.235 252.835 239.105C254.173 240.422 256.442 241.739 257.831 241.845C258.929 241.913 265.457 242.125 268.235 242.211Z" fill="black"/>
<path opacity="0.1" d="M237.639 244.518C237.639 244.518 233.158 246.201 230.077 246.413C228.441 246.525 227.582 245.5 227.139 244.512C228.282 244.905 229.864 245.314 230.696 244.939C231.682 244.49 235.177 244.203 237.137 244.08C237.285 244.248 237.454 244.395 237.639 244.518Z" fill="black"/>
<path d="M244.287 108.865C240.59 107.397 235.835 102.545 237.023 100.278C237.285 99.7051 237.442 99.0878 237.485 98.4571C237.561 97.6005 237.572 96.7391 237.518 95.8808C237.435 94.4741 237.269 93.0737 237.023 91.6872C237.023 91.6872 248.564 91.9534 247.892 93.6909C247.696 94.2033 247.662 95.0879 247.718 96.0754C247.774 97.063 247.911 98.188 248.057 99.1355C248.256 100.432 248.46 101.426 248.46 101.426C248.46 101.426 247.752 102.436 247.34 102.49C246.928 102.545 249.592 110.969 244.287 108.865Z" fill="#CF6F80"/>
<path opacity="0.1" d="M234.841 237.207L234.754 237.305C231.304 233.039 227.131 238.358 227.131 238.358L227.069 238.244L227.282 235.83L233.827 234.09L234.754 236.99L234.841 237.207Z" fill="black"/>
<path opacity="0.1" d="M260.363 234.09C260.363 234.09 257.842 234.038 256.498 235.252C255.154 236.466 248.656 235.513 248.936 235.252C249.018 235.12 249.068 234.97 249.082 234.814L249.964 234.09L260.293 233.778C260.332 233.978 260.363 234.09 260.363 234.09Z" fill="black"/>
<path d="M239.134 200.595C238.947 201.07 238.804 201.562 238.708 202.064C238.475 203.44 238.41 204.84 238.515 206.232C238.619 208.235 238.515 221.664 238.515 221.664C238.515 221.664 236.3 225.245 235.062 226.507C233.824 227.769 237.583 230.037 237.583 230.037C238.143 233.303 234.748 236.99 234.748 236.99C231.298 232.725 227.125 238.04 227.125 238.04C227.125 238.04 224.857 234.033 224.291 232.601C223.725 231.17 226.506 230.183 227.484 229.599C228.461 229.015 227.433 225.591 227.433 225.591C227.433 225.591 226.61 222.588 225.63 219.849C224.649 217.109 226.711 203.475 226.711 203.475C226.711 203.475 226.817 201.05 227.072 200.206C227.199 199.596 227.225 198.969 227.148 198.351C227.131 198.142 227.111 197.97 227.097 197.85C227.083 197.73 227.072 197.678 227.072 197.678L227.111 197.61L228.512 194.942C228.512 194.942 239.806 198.915 239.134 200.595Z" fill="#0C4A6B"/>
<path d="M260.363 233.775C260.363 233.775 257.842 233.721 256.498 234.92C255.154 236.12 248.656 235.183 248.936 234.92C249.216 234.657 249.191 232.71 249.191 232.71C245.379 227.389 248.631 225.23 248.631 225.23C248.631 225.23 246.931 216.857 246.623 213.752C246.407 211.585 246.141 205.737 245.998 202.425C245.937 200.993 245.9 200.006 245.9 200.006L248.987 199.379L249.387 199.299L256.898 197.756C256.898 197.756 257.106 199.187 257.246 200.358C257.316 200.857 257.355 201.361 257.36 201.866C257.313 202.439 257.36 204.234 257.36 204.234L257.618 209.604C257.452 210.168 257.365 210.753 257.36 211.341C257.414 212.028 258.391 221.821 258.391 221.821C258.391 221.821 260.091 227.666 259.511 228.087C258.932 228.508 260.363 233.775 260.363 233.775Z" fill="#0C4A6B"/>
<path opacity="0.1" d="M247.892 93.6995C247.696 94.2119 247.662 95.0965 247.718 96.084C246.172 97.0355 244.395 97.522 242.591 97.4876C240.786 97.4531 239.028 96.8992 237.518 95.8894C237.435 94.4827 237.269 93.0823 237.022 91.6958C237.022 91.6958 248.564 91.962 247.892 93.6995Z" fill="black"/>
<path d="M252.347 87.379C252.378 89.9762 251.398 92.4794 249.622 94.3379C247.847 96.1964 245.422 97.258 242.881 97.2891C240.34 97.3203 237.891 96.3184 236.073 94.5039C234.255 92.6894 233.216 90.211 233.186 87.6138C233.186 87.5336 233.186 87.4592 233.186 87.379C233.186 84.7811 234.195 82.2895 235.993 80.4525C237.79 78.6155 240.228 77.5834 242.769 77.5834C245.311 77.5834 247.749 78.6155 249.546 80.4525C251.343 82.2895 252.353 84.7811 252.353 87.379H252.347Z" fill="#CF6F80"/>
<path opacity="0.1" d="M244.287 108.865C240.59 107.397 235.835 102.545 237.023 100.278C237.285 99.7051 237.442 99.0878 237.485 98.4571L242.545 102.711L245.676 105.336L248.057 99.1441C248.256 100.441 248.46 101.434 248.46 101.434C248.46 101.434 247.752 102.445 247.34 102.499C246.928 102.553 249.592 110.969 244.287 108.865Z" fill="black"/>
<path d="M257.374 127.664L253.148 200.229L247.637 200.598L233.362 158.522L235.703 108.568L236.199 98.0134L242.545 103.341L245.676 105.966L248.127 99.5906L252.683 103.65L257.374 127.664Z" fill="#0C4A6B"/>
<path opacity="0.1" d="M239.134 200.595C238.947 201.07 238.804 201.562 238.708 202.064C234.694 201.432 230.795 200.188 227.142 198.374L227.066 198.334L227.092 197.873V197.633L228.492 194.965C228.492 194.965 239.806 198.915 239.134 200.595Z" fill="black"/>
<path opacity="0.1" d="M249.079 202.075C248.054 202.254 247.02 202.376 245.982 202.439C245.92 201.008 245.884 200.02 245.884 200.02L248.987 199.379L249.079 202.075Z" fill="black"/>
<path opacity="0.1" d="M257.257 200.358C255.266 200.887 252.188 201.483 249.438 201.111L249.398 199.299L256.91 197.756C256.91 197.756 257.108 199.176 257.257 200.358Z" fill="black"/>
<path opacity="0.1" d="M249.387 201.443C237.905 203.446 227.389 197.701 227.389 197.701L227.489 195.755C227.489 195.755 227.75 173.687 227.027 171.996C226.305 170.304 225.742 161.736 226.151 160.428C226.56 159.12 224.658 139.368 224.658 139.368L224.35 131.353L213.066 126.667L218.107 115.924C218.788 114.418 219.374 112.869 219.861 111.287C220.737 108.496 224.806 105.757 224.806 105.757C224.806 105.757 228.979 103.02 230.629 103.123C232.278 103.226 234.441 100.701 234.441 100.701C236.037 96.542 237.482 98.4113 237.482 98.4113C237.482 98.6116 237.482 98.4113 237.404 99.0267C236.843 103.592 246.461 118.02 246.598 118.277L247.525 141.08L248.452 169.938L249.387 201.443Z" fill="black"/>
<path d="M249.079 201.443C237.597 203.446 227.078 197.701 227.078 197.701L227.181 195.755C227.181 195.755 227.439 173.687 226.716 171.996C225.994 170.304 225.431 161.728 225.843 160.408C226.254 159.089 224.341 139.357 224.341 139.357L224.031 131.342L212.75 126.656L217.791 115.913C218.47 114.407 219.056 112.859 219.544 111.278C220.421 108.496 224.504 105.754 224.504 105.754C224.504 105.754 228.677 103.017 230.323 103.12C231.97 103.223 234.143 100.701 234.143 100.701C235.743 96.542 237.504 98.4113 237.504 98.4113C237.504 98.6116 237.336 98.6975 237.426 99.0267C238.658 103.455 246.175 118.02 246.312 118.277L247.239 141.08L248.146 169.952L249.079 201.443Z" fill="white"/>
<path opacity="0.1" d="M245.984 118.921C244.749 118.395 238.207 110.76 238.207 110.76V109.023C237.969 108.45 236.552 108.799 235.406 109.2L235.899 98.646L236.46 99.1212C237.683 103.547 245.85 118.667 245.984 118.921Z" fill="black"/>
<path d="M246.295 118.292C245.057 117.762 238.515 110.131 238.515 110.131V108.39C238.277 107.818 236.863 108.167 235.715 108.568L236.199 98.0248L236.759 98.4972C237.994 102.917 246.158 118.034 246.295 118.292Z" fill="white"/>
<path opacity="0.1" d="M227.388 156.363C227.542 156.363 235.373 155.522 235.373 155.522C235.373 155.522 240.114 165.054 239.804 167.37C239.493 169.686 238.93 171.741 237.023 171.377C235.115 171.014 226.758 171.664 226.758 171.664L227.388 156.363Z" fill="black"/>
<path d="M227.078 155.731C227.234 155.731 235.065 154.889 235.065 154.889C235.065 154.889 239.804 164.436 239.495 166.726C239.187 169.016 238.619 171.097 236.714 170.733C234.81 170.37 226.448 171.02 226.448 171.02L227.078 155.731Z" fill="white"/>
<path d="M232.978 151.268C232.978 151.268 240.165 155.218 240.319 156.421C240.473 157.623 236.661 155.894 235.838 155.682C235.296 155.55 234.744 155.462 234.188 155.419L228.696 155.57L232.978 151.268Z" fill="#CF6F80"/>
<path opacity="0.1" d="M243.976 119.414C244.394 119.414 244.733 119.068 244.733 118.641C244.733 118.214 244.394 117.868 243.976 117.868C243.559 117.868 243.22 118.214 243.22 118.641C243.22 119.068 243.559 119.414 243.976 119.414Z" fill="black"/>
<path d="M243.976 119.099C244.394 119.099 244.733 118.753 244.733 118.326C244.733 117.899 244.394 117.553 243.976 117.553C243.559 117.553 243.22 117.899 243.22 118.326C243.22 118.753 243.559 119.099 243.976 119.099Z" fill="#3F3D56"/>
<path opacity="0.1" d="M245.368 152.871C245.786 152.871 246.124 152.525 246.124 152.098C246.124 151.671 245.786 151.325 245.368 151.325C244.951 151.325 244.612 151.671 244.612 152.098C244.612 152.525 244.951 152.871 245.368 152.871Z" fill="black"/>
<path d="M245.368 152.553C245.786 152.553 246.124 152.207 246.124 151.78C246.124 151.354 245.786 151.008 245.368 151.008C244.951 151.008 244.612 151.354 244.612 151.78C244.612 152.207 244.951 152.553 245.368 152.553Z" fill="#3F3D56"/>
<path opacity="0.1" d="M244.732 136.142C245.15 136.142 245.489 135.796 245.489 135.37C245.489 134.943 245.15 134.597 244.732 134.597C244.315 134.597 243.976 134.943 243.976 135.37C243.976 135.796 244.315 136.142 244.732 136.142Z" fill="black"/>
<path d="M244.732 135.828C245.15 135.828 245.489 135.481 245.489 135.055C245.489 134.628 245.15 134.282 244.732 134.282C244.315 134.282 243.976 134.628 243.976 135.055C243.976 135.481 244.315 135.828 244.732 135.828Z" fill="#3F3D56"/>
<path d="M262.164 155.258C262.164 155.258 262.679 156.049 262.164 156.403C261.648 156.758 262.214 157.669 262.214 157.669C262.214 157.669 260.929 158.436 261.494 159.131C262.06 159.827 261.702 162.95 261.702 162.95L260.156 165.581C260.156 165.581 260.248 167.267 260.254 169.545C260.254 173.101 260.049 178.099 258.918 180.377L259.069 199.072C259.069 199.072 253.655 201.096 249.124 200.478L248.452 170.479C248.452 170.479 249.432 153.466 249.793 150.203C250.005 148.509 250.091 146.801 250.051 145.094C250.051 145.094 249.897 139.987 249.379 137.619C249.379 137.619 248.819 127.349 248.763 124.506C248.738 123.146 248.808 119.179 248.886 115.406C248.973 111.281 249.071 107.391 249.071 107.391L248.049 99.1212C248.049 99.1212 249.071 99.0181 249.379 99.4361C249.517 99.5678 249.667 99.6857 249.827 99.7881C251.594 101.008 257.828 104.758 257.828 104.758C257.828 104.758 261.279 106.16 262.105 108.17C262.931 110.179 263.505 111.605 263.906 112.177C264.306 112.75 264.524 115.441 264.524 115.441C264.524 115.441 265.712 120.393 266.639 121.231C267.566 122.07 268.232 127.394 268.232 127.394L260.041 133.978C260.041 133.978 259.321 144.93 259.167 145.354C259.013 145.778 262.164 155.258 262.164 155.258Z" fill="white"/>
<path d="M262.474 155.258C262.474 155.258 262.987 156.049 262.474 156.403C261.962 156.758 262.522 157.669 262.522 157.669C262.522 157.669 261.236 158.436 261.802 159.131C262.368 159.827 262.009 162.95 262.009 162.95L260.469 165.581C260.469 165.581 260.561 167.267 260.57 169.545C260.57 173.101 260.365 178.099 259.234 180.377L259.388 199.073C259.388 199.073 253.974 201.096 249.443 200.478L248.774 170.479C248.774 170.479 249.751 153.467 250.115 150.203C250.327 148.509 250.412 146.801 250.37 145.094C250.37 145.094 250.216 139.987 249.701 137.619C249.701 137.619 249.141 127.349 249.082 124.506C249.057 123.146 249.127 119.179 249.205 115.406C249.292 111.281 249.39 107.391 249.39 107.391L248.04 99.0095C248.04 99.0095 249.39 99.0095 249.701 99.4361C249.837 99.5694 249.988 99.6874 250.149 99.7882C251.913 101.008 258.147 104.758 258.147 104.758C258.147 104.758 261.589 106.16 262.429 108.17C263.27 110.179 263.83 111.605 264.23 112.177C264.631 112.75 264.849 115.441 264.849 115.441C264.849 115.441 266.037 120.393 266.964 121.231C267.891 122.07 268.56 127.394 268.56 127.394L260.368 133.978C260.368 133.978 259.648 144.93 259.492 145.354C259.335 145.778 262.474 155.258 262.474 155.258Z" fill="white"/>
<path opacity="0.1" d="M252.664 109.821L253.406 112.026L249.51 116.033C249.597 111.908 249.695 108.018 249.695 108.018L248.345 99.6393C248.345 99.6393 249.695 99.6393 250.006 100.066C250.143 100.199 250.293 100.317 250.454 100.418L253.765 110.176L252.664 109.821Z" fill="black"/>
<path d="M252.347 109.189L253.09 111.39L249.197 115.398C249.281 111.273 249.381 107.382 249.381 107.382L248.029 99.001C248.029 99.001 249.382 99.001 249.69 99.4275C249.827 99.56 249.977 99.678 250.138 99.7796L253.468 109.547L252.347 109.189Z" fill="white"/>
<path opacity="0.1" d="M252.347 87.379C252.349 88.4105 252.19 89.4356 251.877 90.4162C251.824 90.4252 251.77 90.4233 251.718 90.4105C251.666 90.3977 251.617 90.3743 251.574 90.3418C251.499 87.7655 250.261 85.3438 248.735 83.2856C248.305 82.6648 247.786 82.1146 247.194 81.654C246.595 81.1945 245.851 80.9792 245.105 81.05C244.265 81.1673 243.523 81.7513 242.674 81.8257C241.554 81.9202 240.551 81.1273 239.44 81.09C238.987 81.0939 238.541 81.1965 238.131 81.391C237.721 81.5856 237.357 81.8675 237.062 82.2179C236.477 82.9227 236.043 83.7447 235.788 84.631C235.347 85.9759 235.107 87.381 235.076 88.7989C235.062 89.6004 234.987 90.6051 234.258 90.8971C234.314 90.3081 234.248 89.7138 234.066 89.1519C233.885 88.5901 233.59 88.0731 233.203 87.6338L233.186 87.6138C233.186 87.5336 233.186 87.4592 233.186 87.379C233.186 84.7811 234.195 82.2895 235.993 80.4525C237.79 78.6155 240.228 77.5834 242.769 77.5834C245.311 77.5834 247.749 78.6155 249.546 80.4525C251.343 82.2895 252.353 84.7811 252.353 87.379H252.347Z" fill="black"/>
<path d="M246.746 71.8269C245.291 71.1271 243.636 70.9948 242.092 71.4547C241.316 71.6894 240.585 72.0702 239.798 72.262C238.118 72.677 236.157 72.2276 234.715 73.2324C233.914 73.8049 233.432 74.7094 232.984 75.5911L231.864 77.7695C231.253 78.9632 230.637 80.1769 230.382 81.4908C230.128 82.8047 230.282 84.276 231.097 85.3352C231.688 86.1023 232.567 86.5861 233.211 87.3103C233.598 87.7519 233.891 88.2705 234.073 88.8336C234.254 89.3967 234.319 89.9921 234.264 90.5822C234.992 90.296 235.065 89.2855 235.082 88.484C235.113 87.0661 235.353 85.6611 235.793 84.3161C236.049 83.4298 236.483 82.6078 237.067 81.903C237.362 81.5522 237.727 81.2698 238.137 81.0748C238.547 80.8798 238.993 80.7767 239.445 80.7723C240.565 80.8124 241.571 81.6053 242.68 81.508C243.52 81.4364 244.265 80.8524 245.111 80.7351C245.856 80.663 246.602 80.8784 247.2 81.3391C247.792 81.7983 248.311 82.3487 248.738 82.9707C250.267 85.0318 251.507 87.442 251.58 90.0269C251.897 90.2616 252.353 89.9525 252.51 89.5861C252.667 89.2196 252.672 88.7903 252.871 88.441C253.101 88.0374 253.541 87.8199 253.885 87.5164C254.759 86.7464 254.977 85.4497 254.944 84.2732C254.91 83.0967 254.686 81.903 254.904 80.7465C255.036 80.0395 255.333 79.3725 255.495 78.6712C255.658 77.9699 255.677 77.1827 255.294 76.5787C254.734 75.6941 253.555 75.5167 252.527 75.4337C251.359 75.3306 250.314 75.4623 249.569 74.4575C249.219 73.9339 248.825 73.4417 248.393 72.9862C248.239 72.8345 246.746 71.8898 246.746 71.8269Z" fill="#512E4E"/>
<path opacity="0.1" d="M216.298 132.192L213.374 126.665L212.447 135.195C212.447 135.195 212.963 138.985 212.859 139.566C212.755 140.147 214.971 145.357 214.971 145.357C214.971 145.357 222.289 158.682 225.277 159.366L235.359 151.992L232.682 148.517C232.682 148.517 231.755 148.148 231.522 148.517C231.522 148.517 226.548 139.775 226.036 139.145C225.523 138.515 225.621 137.247 225.621 137.247C225.621 137.247 224.848 136.406 225.106 135.616C225.364 134.826 223.627 132.089 223.627 132.089L225.224 130.563L216.298 132.192Z" fill="black"/>
<path d="M213.528 126.032L212.755 126.665L211.828 135.195C211.828 135.195 212.344 138.985 212.24 139.566C212.136 140.147 214.355 145.357 214.355 145.357C214.355 145.357 221.67 158.682 224.658 159.366L234.757 151.992L232.077 148.517C232.077 148.517 231.15 148.148 230.917 148.517C230.917 148.517 225.946 139.775 225.431 139.145C224.916 138.515 225.019 137.247 225.019 137.247C225.019 137.247 224.246 136.406 224.504 135.616C224.762 134.826 223.008 132.089 223.008 132.089L224.605 130.563L213.528 126.032Z" fill="white"/>
<path opacity="0.1" d="M261.494 159.461C262.054 160.156 261.701 163.282 261.701 163.282L260.155 165.896C260.155 165.896 260.248 167.585 260.253 169.863L257.654 170.693C257.419 170.768 257.17 170.785 256.927 170.741C256.684 170.698 256.455 170.595 256.259 170.443C256.063 170.291 255.905 170.092 255.799 169.865C255.693 169.638 255.642 169.388 255.649 169.136L256.1 154.365L262.163 156.733C261.648 157.099 262.214 157.998 262.214 157.998C262.214 157.998 260.928 158.765 261.494 159.461Z" fill="black"/>
<path d="M261.802 159.146C262.362 159.839 262.009 162.964 262.009 162.964L260.469 165.581C260.469 165.581 260.561 167.267 260.57 169.545L257.923 170.39C257.693 170.463 257.45 170.48 257.212 170.438C256.975 170.395 256.751 170.296 256.559 170.147C256.368 169.998 256.213 169.805 256.109 169.582C256.006 169.36 255.955 169.116 255.963 168.87L256.414 154.048L262.474 156.421C261.956 156.787 262.522 157.686 262.522 157.686C262.522 157.686 261.236 158.45 261.802 159.146Z" fill="white"/>
<path d="M263.813 152.098C263.813 152.098 263.402 154.786 262.371 154.944C261.34 155.101 260.878 159.292 259.85 159.146C258.822 159 259.503 155.247 259.539 154.52C259.576 153.793 258.419 150.781 259.282 150.097C260.144 149.413 262.889 150.097 262.889 150.097L263.813 152.098Z" fill="#CF6F80"/>
<path opacity="0.1" d="M265.992 131.402L267.933 127.394C267.933 127.394 268.708 130.449 268.708 132.08C268.708 133.712 269.789 133.872 269.789 133.872C269.789 133.872 270.974 135.304 270.35 136.349C269.725 137.393 269.476 139.981 269.476 139.981C269.476 139.981 269.68 144.93 268.753 145.615C267.826 146.299 267.619 147.933 267.619 147.933C267.619 147.933 265.919 151.039 265.972 151.778C266.025 152.516 263.603 157.517 263.603 157.517C263.603 157.517 264.788 151.302 257.884 148.617C257.884 148.617 257.831 146.511 258.346 145.932C258.862 145.354 259.665 145.074 259.161 142.165C258.657 139.257 259.016 135.75 259.016 135.049C259.016 134.348 260.562 129.976 260.562 129.976L265.992 131.402Z" fill="black"/>
<path d="M266.854 126.822L268.552 127.394C268.552 127.394 269.327 130.449 269.327 132.08C269.327 133.712 270.408 133.872 270.408 133.872C270.408 133.872 271.593 135.304 270.969 136.349C270.344 137.393 270.092 139.981 270.092 139.981C270.092 139.981 270.299 144.93 269.372 145.615C268.445 146.299 268.252 147.933 268.252 147.933C268.252 147.933 266.552 151.039 266.605 151.778C266.658 152.516 264.233 157.517 264.233 157.517C264.233 157.517 265.418 151.302 258.514 148.617C258.514 148.617 258.464 146.511 258.979 145.932C259.494 145.354 260.298 145.074 259.794 142.165C259.29 139.257 259.649 135.75 259.649 135.049C259.649 134.348 261.194 129.976 261.194 129.976L266.854 126.822Z" fill="white"/>
<path opacity="0.1" d="M229.36 230.695C229.36 230.695 232.065 228.957 233.841 230.22C235.617 231.482 229.36 230.695 229.36 230.695Z" fill="black"/>
<path opacity="0.1" d="M250.387 225.322C250.387 225.322 252.781 225.007 254.792 227.22C256.803 229.433 250.387 225.322 250.387 225.322Z" fill="black"/>
<g opacity="0.1">
<path opacity="0.1" d="M253.885 86.8867C253.54 87.193 253.098 87.4077 252.868 87.8113C252.672 88.1576 252.667 88.587 252.51 88.9563C252.353 89.3256 251.896 89.6318 251.577 89.3971C251.504 86.8208 250.264 84.402 248.737 82.341C248.311 81.7198 247.792 81.1703 247.2 80.7122C246.601 80.2505 245.855 80.0341 245.108 80.1053C244.268 80.2227 243.528 80.8066 242.68 80.8811C241.559 80.9755 240.554 80.1826 239.442 80.1454C238.99 80.1489 238.545 80.2514 238.135 80.4459C237.725 80.6405 237.361 80.9226 237.067 81.2732C236.483 81.9781 236.049 82.8 235.793 83.6864C235.353 85.0314 235.113 86.4363 235.082 87.8542C235.065 88.6529 234.992 89.649 234.27 89.9467C234.286 90.1592 234.286 90.3726 234.27 90.5851C235 90.2988 235.073 89.2883 235.09 88.4868C235.122 87.069 235.361 85.664 235.801 84.319C236.057 83.4326 236.491 82.6107 237.076 81.9059C237.37 81.5553 237.734 81.273 238.144 81.078C238.553 80.883 238.999 80.7797 239.451 80.7752C240.571 80.8152 241.579 81.6082 242.688 81.5108C243.528 81.4393 244.273 80.8553 245.116 80.7379C245.863 80.6659 246.609 80.8813 247.208 81.3419C247.8 81.8011 248.319 82.3516 248.746 82.9736C250.272 85.0346 251.513 87.4449 251.586 90.0297C251.905 90.2645 252.361 89.9553 252.518 89.5889C252.675 89.2225 252.681 88.7931 252.877 88.4439C253.106 88.0403 253.549 87.8227 253.893 87.5193C254.767 86.7493 254.985 85.4525 254.952 84.276C254.952 84.2388 254.952 84.2045 254.952 84.1673C254.896 85.1921 254.63 86.2312 253.885 86.8867Z" fill="black"/>
<path opacity="0.1" d="M233.208 86.6863C232.567 85.9621 231.687 85.4754 231.097 84.7083C230.597 84.0311 230.313 83.214 230.282 82.3667C230.194 83.4261 230.483 84.4823 231.097 85.3409C231.687 86.1081 232.567 86.5918 233.208 87.316C233.828 88.0241 234.2 88.9221 234.267 89.8694C234.309 89.2933 234.237 88.7145 234.055 88.1676C233.873 87.6206 233.585 87.1168 233.208 86.6863Z" fill="black"/>
<path opacity="0.1" d="M255.495 78.0414C255.33 78.7427 255.036 79.4097 254.902 80.1168C254.821 80.5949 254.792 81.0806 254.815 81.5652C254.824 81.2915 254.853 81.0188 254.902 80.7494C255.036 80.0423 255.33 79.3754 255.495 78.674C255.59 78.287 255.621 77.8865 255.588 77.489C255.57 77.6751 255.539 77.8597 255.495 78.0414Z" fill="black"/>
</g>
<path opacity="0.1" d="M37.1723 240.133C52.2436 240.133 64.4613 238.127 64.4613 235.653C64.4613 233.179 52.2436 231.173 37.1723 231.173C22.101 231.173 9.8833 233.179 9.8833 235.653C9.8833 238.127 22.101 240.133 37.1723 240.133Z" fill="#62BD69"/>
<path d="M38.0516 149.831H36.2957V190.242H38.0516V149.831Z" fill="#535461"/>
<path d="M49.0887 190.121L48.9767 191.942L48.8226 194.518L48.7582 195.589L48.6014 198.165L48.5342 199.236L48.3801 201.812L46.6074 231.03C46.5318 232.287 45.9899 233.467 45.0922 234.33C44.1945 235.193 43.0086 235.673 41.7763 235.673H32.5708C31.3352 235.673 30.1462 235.191 29.2478 234.324C28.3495 233.456 27.8099 232.271 27.7398 231.01L25.967 201.792L25.813 199.216L25.7486 198.145L25.5889 195.569L25.5245 194.498L25.3705 191.922L25.2584 190.101C25.2391 189.752 25.2894 189.403 25.4063 189.075C25.5232 188.746 25.7042 188.445 25.9385 188.191C26.1727 187.936 26.4551 187.733 26.7687 187.593C27.0822 187.454 27.4202 187.381 27.7622 187.379H46.5878C46.9312 187.381 47.2707 187.455 47.5853 187.596C47.8998 187.737 48.1829 187.942 48.4171 188.199C48.6513 188.455 48.8317 188.758 48.9472 189.089C49.0627 189.42 49.1108 189.771 49.0887 190.121Z" fill="#3F3D56"/>
<path d="M48.9767 191.939L48.8198 194.51H25.5245L25.3677 191.939H48.9767Z" fill="#9D9CB5"/>
<path d="M48.7556 195.58L48.6016 198.151H25.7459L25.5891 195.58H48.7556Z" fill="#9D9CB5"/>
<path d="M48.5343 199.224L48.3803 201.792H25.9671L25.8103 199.224H48.5343Z" fill="#9D9CB5"/>
<path d="M22.6988 164.98C32.9265 172.542 37.1862 184.37 37.1862 184.37C37.1862 184.37 24.8636 183.938 14.6331 176.375C4.40251 168.813 0.137207 156.993 0.137207 156.993C0.137207 156.993 12.4598 157.417 22.6988 164.98Z" fill="#62BD69"/>
<path d="M0.137207 156.993C0.137207 156.993 12.9275 164.25 17.0304 170.258C21.1333 176.267 37.175 184.376 37.175 184.376" stroke="#535461" stroke-width="2" stroke-miterlimit="10"/>
<path d="M29.2887 149.745C34.8562 153.859 37.1751 160.297 37.1751 160.297C37.1751 160.297 30.4537 160.062 24.9001 155.948C19.3466 151.835 17.0137 145.394 17.0137 145.394C17.0137 145.394 23.7239 145.629 29.2887 149.745Z" fill="#62BD69"/>
<path d="M17.0137 145.394C17.0137 145.394 23.9759 149.344 26.2108 152.613C28.4457 155.882 37.1751 160.297 37.1751 160.297" stroke="#535461" stroke-width="2" stroke-miterlimit="10"/>
<path d="M45.2633 159.97C38.8695 167.152 37.5168 176.539 37.5168 176.539C37.5168 176.539 46.532 174.277 52.9201 167.092C59.3083 159.907 60.6665 150.524 60.6665 150.524C60.6665 150.524 51.657 152.788 45.2633 159.97Z" fill="#62BD69"/>
<path d="M60.6721 150.527C60.6721 150.527 52.3432 157.889 50.2259 162.962C48.1087 168.034 37.5168 176.539 37.5168 176.539" stroke="#535461" stroke-width="2" stroke-miterlimit="10"/>
</g>
<defs>
<linearGradient id="paint0_linear_693_148" x1="130.376" y1="239.182" x2="130.376" y2="73.8278" gradientUnits="userSpaceOnUse">
<stop stop-color="#808080" stop-opacity="0.25"/>
<stop offset="0.54" stop-color="#808080" stop-opacity="0.12"/>
<stop offset="1" stop-color="#808080" stop-opacity="0.1"/>
</linearGradient>
<linearGradient id="paint1_linear_693_148" x1="53289.5" y1="154964" x2="53289.5" y2="46581.9" gradientUnits="userSpaceOnUse">
<stop stop-color="#808080" stop-opacity="0.25"/>
<stop offset="0.54" stop-color="#808080" stop-opacity="0.12"/>
<stop offset="1" stop-color="#808080" stop-opacity="0.1"/>
</linearGradient>
<clipPath id="clip0_693_148">
<rect width="327" height="247" fill="white"/>
</clipPath>
</defs>
</svg>
